<?xml version="1.0" standalone="no"?>
<!DOCTYPE svg PUBLIC "-//W3C//DTD SVG 20010904//EN"
 "http://www.w3.org/TR/2001/REC-SVG-20010904/DTD/svg10.dtd">
<svg version="1.0" xmlns="http://www.w3.org/2000/svg"
 width="128.000000pt" height="128.000000pt" viewBox="0 0 128.000000 128.000000"
 preserveAspectRatio="xMidYMid meet">
<metadata>
Created by potrace 1.14, written by Peter Selinger 2001-2017
</metadata>
<g transform="translate(0.000000,128.000000) scale(0.100000,-0.100000)"
fill="#000000" stroke="none">
<path d="M190 1191 c-69 -21 -131 -74 -166 -141 -27 -51 -25 -171 4 -226 27
-53 107 -122 150 -130 57 -11 42 -19 -31 -17 l-72 2 0 -300 c0 -259 2 -299 15
-300 69 -3 859 -4 872 -1 14 3 17 14 17 46 -3 110 -5 106 51 106 40 0 70 -10
150 -50 l100 -50 0 245 c0 135 -2 245 -5 245 -3 0 -46 -20 -96 -46 -63 -31
-104 -45 -132 -46 -76 -1 -72 -5 -72 74 l0 73 -45 6 c-25 3 -38 7 -29 7 35 4
106 71 127 121 41 94 24 182 -47 252 -57 55 -94 66 -256 74 -168 8 -233 17
-365 51 -58 15 -130 17 -170 5z m417 -127 l52 -7 -26 -38 c-17 -25 -27 -57
-30 -98 -5 -52 -2 -68 21 -115 26 -52 71 -97 118 -116 17 -6 -5 -9 -77 -10
-55 -1 -153 -2 -218 -3 -64 -1 -117 1 -117 5 0 3 16 12 35 18 123 41 196 222
137 341 l-21 41 37 -6 c20 -3 60 -9 89 -12z"/>
</g>
</svg>
